<svg xmlns="http://www.w3.org/2000/svg" style="display: none;"><symbol id="left" viewBox="0 0 512 512"><title>left</title><path d="M469.333,213.333H168.125l94.917-79.094c9.083-7.573,14.292-18.698,14.292-30.521c0-21.896-17.813-39.719-39.729-39.719 h-2.917c-9.417,0-18.542,3.354-25.75,9.458L3.75,247.875C1.375,249.896,0,252.875,0,256s1.375,6.104,3.75,8.125l205.208,174.427 c7.188,6.094,16.313,9.448,25.729,9.448h2.917c21.917,0,39.729-17.823,39.729-39.719c0-11.823-5.208-22.948-14.292-30.521 l-94.917-79.094h301.208C492.854,298.667,512,279.531,512,256S492.854,213.333,469.333,213.333z"/></symbol><symbol id="right" viewBox="0 0 512 512"><title>right</title><path d="M508.25,247.875L303.042,73.448C295.854,67.354,286.729,64,277.313,64h-2.917c-21.917,0-39.729,17.823-39.729,39.719 c0,11.823,5.208,22.948,14.292,30.521l94.917,79.094H42.667C19.146,213.333,0,232.469,0,256s19.146,42.667,42.667,42.667h301.208 l-94.917,79.094c-9.083,7.573-14.292,18.698-14.292,30.521c0,21.896,17.813,39.719,39.729,39.719h2.917 c9.417,0,18.542-3.354,25.75-9.458L508.25,264.125c2.375-2.021,3.75-5,3.75-8.125S510.625,249.896,508.25,247.875z"/></symbol></svg>