<svg xmlns="http://www.w3.org/2000/svg" style="display: none;"><symbol id="man" viewBox="0 0 198.496 198.496"><title>man</title><g> <rect x="84.55" y="148.231" style="fill:#FDCC9B;" width="29.395" height="32.922"/> <path style="fill:#FCBC85;" d="M84.551,152.108c0,0,12.365,7.874,29.395,6.05v-9.928H84.551V152.108z"/> <ellipse style="fill:#FCBC85;" cx="42.164" cy="97.181" rx="14.343" ry="16.364"/> <ellipse style="fill:#FCBC85;" cx="156.332" cy="97.181" rx="14.343" ry="16.364"/> <path style="fill:#FDCC9B;" d="M156.274,65.925c0-24.103-17.637-41.741-57.026-41.741c-39.389,0-57.026,17.637-57.026,41.741 c0,24.104-4.115,87.597,57.026,87.597C160.389,153.522,156.274,90.029,156.274,65.925z"/> <g> <g> <ellipse style="fill:#3B2519;" cx="71.472" cy="93.262" rx="6.173" ry="6.761"/> <circle style="fill:#FFFFFF;" cx="68.781" cy="90.277" r="1.846"/> </g> <path style="fill:#51362A;" d="M61.597,76.507c2.919,1.46,7.606-4.96,18.335,0.625c1.956,1.018,3.123-8.708-8.377-8.708 C61.597,68.424,59.833,75.626,61.597,76.507z"/> <g> <ellipse style="fill:#3B2519;" cx="127.786" cy="93.262" rx="6.173" ry="6.761"/> <circle style="fill:#FFFFFF;" cx="125.095" cy="90.277" r="1.846"/> </g> <path style="fill:#51362A;" d="M136.899,76.507c-2.919,1.46-7.606-4.96-18.335,0.625c-1.956,1.018-3.123-8.708,8.378-8.708 C136.899,68.424,138.662,75.626,136.899,76.507z"/> </g> <path style="fill:#FCBC85;" d="M99.248,117.043c-6.1,0-9.774-4.556-9.774-2.352c0,2.205,1.764,6.394,9.774,6.394 c8.01,0,9.774-4.189,9.774-6.394C109.022,112.486,105.347,117.043,99.248,117.043z"/> <path style="fill:#FCBC85;" d="M99.248,137.313c-2.11,0-3.381-1.576-3.381-0.813s0.61,2.211,3.381,2.211 c2.771,0,3.38-1.448,3.38-2.211S101.357,137.313,99.248,137.313z"/> <path style="fill:#F7945E;" d="M99.248,131.696c-9.668,0-15.493-3.937-15.493-2.939c0,0.998,2.796,4.924,15.493,4.924 c12.697,0,15.493-3.926,15.493-4.924C114.74,127.759,108.916,131.696,99.248,131.696z"/> </g><path style="fill:#F7941E;" d="M99.248,161.458v37.038H27.821C27.821,183.504,65.444,161.458,99.248,161.458z"/><path style="fill:#F7941E;" d="M99.248,161.458v37.038h71.427C170.675,183.504,133.052,161.458,99.248,161.458z"/><path style="fill:#F36C21;" d="M99.248,161.458c-7.19,0-14.552,1.005-21.689,2.72c0.048,0.063,7.916,10.214,21.689,10.214 c12.754,0,21.233-8.693,22.462-10.03C114.332,162.531,106.698,161.458,99.248,161.458z"/><path style="fill:#FDCC9B;" d="M84.55,162.74c0,0,4.299,5.332,14.697,5.332c10.398,0,14.698-5.332,14.698-5.332 S98.697,157.189,84.55,162.74z"/><path style="fill:#51362A;" d="M146.132,19.041c0,0-21.164-26.896-65.152-16.755C36.993,12.426,33.697,38.882,35.02,64.621 c1.323,25.74,4.85,40.84,9.022,38.974c4.172-1.867,2.001-18.857,2.442-22.778c0.441-3.921,4.409-21.653,31.162-19.007 c26.752,2.646,49.296-7.055,49.296-7.055s9.075,11.471,15.047,13.669c11.934,4.391,8.02,33.67,12.696,33.67 S182.288,34.473,146.132,19.041z"/></symbol><symbol id="woman" viewBox="0 0 207.964 207.964"><title>woman</title><path style="fill:#432B1F;" d="M40.634,148.18c6.989,19.495-3.968,55.375-3.968,55.375h63.346V93.325l-69.52,13.325 C30.493,106.649,34.315,130.553,40.634,148.18z"/><path style="fill:#432B1F;" d="M159.452,148.18c-6.989,19.495,3.969,55.375,3.969,55.375h-63.347V93.325l69.519,13.325 C169.593,106.649,165.772,130.553,159.452,148.18z"/><g> <g> <rect x="85.315" y="157.699" style="fill:#FDCC9B;" width="29.395" height="32.922"/> <path style="fill:#FCBC85;" d="M85.315,161.577c0,0,12.365,7.874,29.395,6.05v-9.928H85.315V161.577z"/> <ellipse style="fill:#FCBC85;" cx="42.928" cy="106.649" rx="14.343" ry="16.364"/> <ellipse style="fill:#FCBC85;" cx="157.096" cy="106.649" rx="14.343" ry="16.364"/> <path style="fill:#FDCC9B;" d="M157.038,75.394c0-24.103-17.637-41.741-57.025-41.741c-39.39,0-57.026,17.637-57.026,41.741 c0,24.104-4.115,87.597,57.026,87.597C161.153,162.99,157.038,99.498,157.038,75.394z"/> <g> <g> <ellipse style="fill:#3B2519;" cx="72.237" cy="102.731" rx="6.173" ry="6.761"/> <circle style="fill:#FFFFFF;" cx="69.545" cy="99.746" r="1.846"/> </g> <path style="fill:#51362A;" d="M62.362,88.154c2.918,1.118,7.606-3.798,18.334,0.478c1.956,0.78,3.124-6.668-8.377-6.668 C62.362,81.964,60.598,87.479,62.362,88.154z"/> <g> <ellipse style="fill:#3B2519;" cx="128.55" cy="102.731" rx="6.173" ry="6.761"/> <circle style="fill:#FFFFFF;" cx="125.859" cy="99.746" r="1.847"/> </g> <path style="fill:#51362A;" d="M137.663,88.154c-2.919,1.118-7.605-3.798-18.335,0.478c-1.955,0.78-3.123-6.668,8.378-6.668 C137.663,81.964,139.426,87.479,137.663,88.154z"/> </g> <path style="fill:#FCBC85;" d="M100.012,126.511c-6.1,0-9.774-4.556-9.774-2.352c0,2.205,1.764,6.394,9.774,6.394 c8.01,0,9.773-4.189,9.773-6.394C109.786,121.955,106.112,126.511,100.012,126.511z"/> <path style="fill:#FCBC85;" d="M100.012,146.782c-2.109,0-3.381-1.576-3.381-0.813s0.61,2.211,3.381,2.211 s3.381-1.448,3.381-2.211S102.122,146.782,100.012,146.782z"/> <path style="fill:#F7945E;" d="M100.012,141.165c-9.668,0-15.493-3.936-15.493-2.939c0,0.998,2.796,4.924,15.493,4.924 c12.697,0,15.492-3.926,15.492-4.924C115.504,137.228,109.68,141.165,100.012,141.165z"/> </g> <circle style="fill:#F9AA8D;" cx="64.298" cy="124.336" r="8.378"/> <circle style="fill:#F9AA8D;" cx="136.756" cy="124.336" r="8.377"/> </g><path style="fill:#694B74;" d="M100.012,170.927v37.038H35.639C35.639,192.973,66.208,170.927,100.012,170.927z"/><path style="fill:#694B74;" d="M100.012,170.927v37.038h64.372C164.384,192.973,133.816,170.927,100.012,170.927z"/><path style="fill:#563C60;" d="M99.821,170.927c-7.271,0-14.715,1.005-21.933,2.72c0.049,0.063,8.006,10.214,21.933,10.214 c12.898,0,21.472-8.693,22.715-10.03C115.076,172,107.355,170.927,99.821,170.927z"/><path style="fill:#FDCC9B;" d="M85.315,172.209c0,0,4.299,5.332,14.697,5.332c10.398,0,14.697-5.332,14.697-5.332 S99.461,166.657,85.315,172.209z"/><path style="fill:#51362A;" d="M151.747,24.541C114.709-19.552,44.162-1.915,28.584,58.933 c-15.577,60.847,12.05,89.247,12.05,89.247C30.04,112.321,54.744,75.247,75.908,74.806c21.165-0.441,54.675-12.346,54.675-12.346 s5.625,28.622,23.81,39.132c13.669,7.9,8.477,31.122,4.949,46.588C172.569,143.149,211.712,42.619,151.747,24.541z"/></symbol></svg>