<svg xmlns="http://www.w3.org/2000/svg" style="display: none;"><symbol id="robbery" viewBox="0 0 64 64"><title>robbery</title><path d="M13,42h0A10,10,0,0,0,23,32V19a4,4,0,0,0-4-4H15A12,12,0,0,0,3,27v5A10,10,0,0,0,13,42Z" style="fill:#327fb3"/><circle cx="26" cy="6" r="3" style="fill:#636363"/><path d="M32.5,3h0A5.5,5.5,0,0,1,38,8.5V20a0,0,0,0,1,0,0H27a0,0,0,0,1,0,0V8.5A5.5,5.5,0,0,1,32.5,3Z" style="fill:#737373"/><polygon points="53 44 57 57 61 58 52 61 47 50 32 50 24 59 8 53 3 55 8 47 20 52 23 44 53 44" style="fill:#636363"/><path d="M33,9h5a0,0,0,0,1,0,0v4a0,0,0,0,1,0,0H33a2,2,0,0,1-2-2v0A2,2,0,0,1,33,9Z" style="fill:#f5c09a"/><path d="M55,20l-3,9-4.219-6.328A6,6,0,0,0,42.789,20H23l-8.015.617A5.4,5.4,0,0,0,10,26v3.5A2.5,2.5,0,0,0,12.5,32h0A2.5,2.5,0,0,0,15,29.5V26h8V44H41V26l5.278,7.54A5.767,5.767,0,0,0,51,36h0a5.766,5.766,0,0,0,5.4-3.743L61,20Z" style="fill:#a6a6a6"/><path d="M13,26a3,3,0,0,0,0,6h9V26Z" style="fill:#a6a6a6"/><rect x="23" y="31" width="18" height="2" style="fill:#636363"/><rect x="23" y="35" width="18" height="2" style="fill:#636363"/><rect x="23" y="39" width="18" height="2" style="fill:#636363"/><path d="M47.781,22.672a6.057,6.057,0,0,0-.368-.485L42,26.7V20H40v3H23v2H40v2H23v2H41V26l1.828,2.612,5.73-4.775Z" style="fill:#636363"/><path d="M52,29l-1.772-2.658-5.677,4.73L45.7,32.717,51,28.3V36h0a5.717,5.717,0,0,0,2-.372V27.917l4.326,1.88.7-1.875-4.952-2.153Z" style="fill:#636363"/><polygon points="54.023 22.931 53.359 24.924 59.13 24.986 59.878 22.993 54.023 22.931" style="fill:#636363"/><rect x="20" y="26" width="2" height="6" style="fill:#636363"/><rect x="14" y="26" width="2" height="6" style="fill:#636363"/><path d="M11.8,22.008,15,26.2V26h2.36l-3.844-5.036A5.351,5.351,0,0,0,11.8,22.008Z" style="fill:#636363"/><rect x="22" y="26" width="5" height="6" style="fill:#f5c09a"/><polygon points="61 20 55 20 54 23 59.875 23 61 20" style="fill:#f5c09a"/><path d="M23,26H18L15,15h4a4,4,0,0,1,4,4Z" style="fill:#4398d1"/><polygon points="18 32 17 36 24 36 23 32 18 32" style="fill:#4398d1"/></symbol><symbol id="exit" viewBox="0 0 512.032 512.032"><title>exit</title><path style="fill:#455A64;" d="M266.684,256.006c-17.673,0-32-14.327-32-32s14.327-32,32-32h117.333V53.339 c0-29.455-23.878-53.333-53.333-53.333h-256c-5.891,0-10.667,4.776-10.667,10.667v426.667c0,5.891,4.776,10.667,10.667,10.667h256 c29.455,0,53.333-23.878,53.333-53.333V256.006H266.684z"/><path style="fill:#607D8B;" d="M206.758,55.664L85.585,3.739C62.194-6.288,35.104,4.546,25.077,27.937 c-2.455,5.728-3.723,11.895-3.727,18.127V414c-0.014,18.435,10.975,35.099,27.925,42.347l121.173,51.947 c23.391,10.027,50.481-0.807,60.508-24.198c2.458-5.735,3.726-11.909,3.727-18.148V98.011 C234.698,79.576,223.709,62.912,206.758,55.664z"/><path d="M181.35,298.672c-5.891,0-10.667-4.776-10.667-10.667v-42.667c0-5.891,4.776-10.667,10.667-10.667 c5.891,0,10.667,4.776,10.667,10.667v42.667C192.017,293.897,187.241,298.672,181.35,298.672z"/><path style="fill:#FFC107;" d="M489.873,228.08c1.649-3.989,0.731-8.579-2.325-11.627l-64-64c-4.237-4.093-10.99-3.975-15.083,0.262 c-3.993,4.134-3.993,10.687,0,14.821l45.803,45.803H266.684c-5.891,0-10.667,4.776-10.667,10.667 c0,5.891,4.776,10.667,10.667,10.667h187.584l-45.781,45.781c-4.237,4.093-4.354,10.845-0.262,15.083 c4.093,4.237,10.845,4.354,15.083,0.262c0.089-0.086,0.176-0.173,0.262-0.262l64-64C488.556,230.546,489.339,229.372,489.873,228.08 z"/><path style="fill:#455A64;" d="M181.35,298.672c-5.891,0-10.667-4.776-10.667-10.667v-42.667c0-5.891,4.776-10.667,10.667-10.667 c5.891,0,10.667,4.776,10.667,10.667v42.667C192.017,293.897,187.241,298.672,181.35,298.672z"/></symbol><symbol id="step" viewBox="0 0 480 480"><title>step</title><path style="fill:#7D8F9F;" d="M432,120c-4.418,0-8-3.582-8-8V8c0-4.418,3.582-8,8-8s8,3.582,8,8v104 C440,116.418,436.418,120,432,120z"/><path style="fill:#E3472C;" d="M376,8h56v48L376,8z"/><circle style="fill:#4FB86A;" cx="432" cy="152" r="40"/><path style="fill:#A9BFD1;" d="M344,152v144H168v144H8v40h464V152H344z"/><path style="fill:#1D5C88;" d="M8,72h40v280H8V72z"/><g> <path style="fill:#9A615B;" d="M8,440h96c8.832,0,17.272-3.651,23.32-10.088c11.572-12.316,11.572-31.508,0-43.824 C121.272,379.651,112.832,376,104,376H64l-16-24H8L8,440z"/> <path style="fill:#9A615B;" d="M232,232h42.76c11.313,0,22.013,5.142,29.08,13.976c11.861,14.816,10.679,36.183-2.744,49.6L296,296 h-96l-88-88c4.845-24.222,23.778-43.155,48-48L232,232z"/> </g><path style="fill:#1D5C88;" d="M232,72l-72,88l56,56l96-104L232,72z"/><g> <path style="fill:#67342C;" d="M232,264c-4.418,0-8-3.582-8-8v-24c0-4.418,3.582-8,8-8s8,3.582,8,8v24 C240,260.418,236.418,264,232,264z"/> <path style="fill:#67342C;" d="M264,264c-4.418,0-8-3.582-8-8v-24c0-4.418,3.582-8,8-8s8,3.582,8,8v24 C272,260.418,268.418,264,264,264z"/> <path style="fill:#67342C;" d="M64,408c-4.418,0-8-3.582-8-8v-24c0-4.418,3.582-8,8-8s8,3.582,8,8v24C72,404.418,68.418,408,64,408 z"/> <path style="fill:#67342C;" d="M96,408c-4.418,0-8-3.582-8-8v-24c0-4.418,3.582-8,8-8s8,3.582,8,8v24 C104,404.418,100.418,408,96,408z"/> </g></symbol><symbol id="google-maps" viewBox="0 0 512 512"><title>google-maps</title><g id="Google_Maps_2_"><g><path d="m272.5 268.5-54.958 84.957-52.443 22.442c-30.899-35.4-63.898-77.399-79.499-130.499l31.4-58.4 50.5-23.5c-.899 5.4-1.5 10.8-1.5 16.5 0 49.499 40.499 90 90 90 5.7 0 11.1-.601 16.5-1.5z" fill="#ffda2d"/></g></g><path d="m344.51 196.41c.9-5.37 1.49-10.74 1.49-16.41 0-49.46-40.44-89.94-89.89-90h-.11c-5.7 0-11.1.6-16.5 1.5l79.8-79.8c48.3 18 87 56.7 105 105l-79.8 79.8c0-.03.01-.06.01-.09z" fill="#80aef8"/><path d="m424.3 116.7-27.3 53.3-52.5 26.5c0-.03.01-.06.01-.09.9-5.37 1.49-10.74 1.49-16.41 0-49.46-40.44-89.94-89.89-90h-.08v-15.03l17.97-39.97 45.3-23.3c48.3 18 87 56.7 105 105z" fill="#4086f4"/><g><path d="m424.3 116.7-79.8 79.799c-6.901 36.301-35.7 65.1-72.001 72.001h-.001l-86.872 86.871-20.528 20.527c5.101 5.7 9.6 10.802 14.401 16.201 33.001 37.501 61.501 71.9 61.501 104.901 0 8.399 6.599 15 15 15s15-6.601 15-15c0-33.001 28.5-67.4 61.5-104.9 46.201-51.901 103.5-116.7 103.5-212.1 0-22.2-3.9-43.5-11.7-63.3z" fill="#59c36a"/><path d="m424.3 116.7-79.799 79.798v.001c-6.901 36.301-35.7 65.1-72.001 72.001-.001 0-.001 0-.002 0l-16.467 16.466v227.028c8.386-.018 14.969-6.606 14.969-14.994 0-33.001 28.5-67.4 61.5-104.9 46.201-51.901 103.5-116.7 103.5-212.1 0-22.2-3.9-43.5-11.7-63.3z" fill="#00a66c"/></g><g id="Google_Maps_3_"><path d="m256.031 284.969 16.469-16.469c-5.389.897-10.779 1.492-16.469 1.496z" fill="#fdbf00"/></g><path d="m319.3 11.7-79.8 79.8c-18.3 3.6-34.501 12.299-47.1 24.901l-46.4-19.401-17.2-44.2c32.401-32.701 77.401-52.8 127.2-52.8 22.2 0 43.5 3.9 63.3 11.7z" fill="#4086f4"/><path d="m256.031 74.969 63.269-63.269c-19.79-7.797-41.08-11.693-63.268-11.697v74.966z" fill="#4175df"/><path d="m192.4 116.4c-12.599 12.6-21.301 28.799-24.9 47.1l-81.9 81.9c-6-20.099-9.6-41.7-9.6-65.4 0-49.801 20.099-94.801 52.8-127.2z" fill="#f03800"/></symbol><symbol id="assault-rifle" viewBox="0 0 512 512"><title>assault-rifle</title><g><g><path d="m256 464c-55.559 0-107.792-21.636-147.078-60.922-81.1-81.099-81.1-213.057 0-294.156 39.286-39.286 91.519-60.922 147.078-60.922s107.792 21.636 147.078 60.922c81.1 81.099 81.1 213.057 0 294.156-39.286 39.286-91.519 60.922-147.078 60.922zm0-384c-47.012 0-91.209 18.307-124.451 51.549-68.622 68.622-68.622 180.279 0 248.902 33.242 33.242 77.439 51.549 124.451 51.549s91.209-18.307 124.451-51.549c68.622-68.622 68.622-180.279 0-248.902-33.242-33.242-77.439-51.549-124.451-51.549z" fill="#a5c3dc"/></g><g><path d="m120.235 407.765c-4.096 0-8.189-1.562-11.313-4.686-81.1-81.099-81.1-213.057 0-294.156 39.285-39.287 91.519-60.923 147.078-60.923s107.792 21.636 147.078 60.922c6.249 6.248 6.249 16.379 0 22.627-6.248 6.248-16.379 6.248-22.627 0-33.242-33.242-77.439-51.549-124.451-51.549s-91.209 18.307-124.451 51.549c-68.622 68.622-68.622 180.279 0 248.902 6.249 6.248 6.249 16.379 0 22.627-3.124 3.124-7.219 4.687-11.314 4.687z" fill="#d7e6f0"/></g><g><path d="m256 112c-8.837 0-16-7.163-16-16v-64c0-8.837 7.163-16 16-16s16 7.163 16 16v64c0 8.837-7.163 16-16 16z" fill="#7daf41"/></g><g><path d="m96 272h-64c-8.837 0-16-7.163-16-16s7.163-16 16-16h64c8.837 0 16 7.163 16 16s-7.163 16-16 16z" fill="#7daf41"/></g><g><path d="m256 496c-8.837 0-16-7.163-16-16v-64c0-8.837 7.163-16 16-16s16 7.163 16 16v64c0 8.837-7.163 16-16 16z" fill="#466932"/></g><g><path d="m480 272h-64c-8.837 0-16-7.163-16-16s7.163-16 16-16h64c8.837 0 16 7.163 16 16s-7.163 16-16 16z" fill="#466932"/></g></g><g><g><path d="m114.579 342.225v-38.627l45.255 45.255v83.882c0 4.243-1.686 8.313-4.686 11.314l-51.882 51.882c-6.248 6.248-16.379 6.248-22.627 0l-45.255-45.255c-6.248-6.248-6.248-16.379 0-22.627l74.51-74.51c2.999-3 4.685-7.07 4.685-11.314z" fill="#a17439"/></g><g><path d="m46.696 443.362c-1.023 0-2.048-.391-2.828-1.172-1.563-1.562-1.563-4.095 0-5.657l83.681-83.681v-43.598c0-2.209 1.791-4 4-4s4 1.791 4 4v45.255c0 1.061-.422 2.078-1.172 2.828l-84.853 84.853c-.78.782-1.804 1.172-2.828 1.172z" fill="#d2be69"/></g><g><path d="m284.284 224.402-124.451 124.451-45.255-45.255c-6.248-6.248-6.248-16.379 0-22.627l113.137-113.137z" fill="#463c4b"/></g><g><path d="m239.029 179.147-124.45 124.451c-6.248-6.248-6.248-16.379 0-22.627l113.137-113.137z" fill="#555a6e"/></g><g><path d="m217.373 233.373h32v16h-32z" fill="#555a6e" transform="matrix(.707 -.707 .707 .707 -102.323 235.716)"/></g><g><path d="m159.833 348.853 39.598 39.598c3.124 3.124 8.19 3.124 11.314 0l11.314-11.314c3.124-3.124 3.124-8.19 0-11.314l-39.598-39.598z" fill="#a17439"/></g><g><path d="m335.196 329.255c0 2.209-1.791 4-4 4h-15.883c-37.364 0-72.491-14.55-98.911-40.971l33.941-33.941c17.354 17.354 40.427 26.911 64.97 26.911h15.883c2.209 0 4 1.791 4 4z" fill="#463c4b"/></g><g><path d="m335.196 317.255h-19.883c-33.091 0-64.2-12.886-87.598-36.284l11.314-11.313c20.375 20.376 47.467 31.598 76.283 31.598h19.883v15.999z" fill="#555a6e"/></g><g><path d="m205.089 348.853-11.314-11.314 11.313-11.314c3.022-3.022 4.687-7.04 4.687-11.314s-1.664-8.292-4.686-11.313l11.313-11.314c6.045 6.044 9.373 14.08 9.373 22.627 0 8.548-3.328 16.584-9.373 22.628z" fill="#555a6e"/></g><g><path d="m346.51 162.177-73.539 73.539-28.284-28.284c-3.124-3.124-3.124-8.19 0-11.314l73.539-73.539 28.284 28.284c3.124 3.124 3.124 8.189 0 11.314z" fill="#a07337"/></g><g><path d="m289.941 105.608-62.225 62.225 22.627 22.627 67.882-67.882-16.971-16.971c-3.123-3.123-8.189-3.123-11.313.001z" fill="#d2be69"/></g><g><path d="m352.167 66.01c-3.124-3.124-8.19-3.124-11.314 0l-39.598 39.598 39.598 39.598 101.823-101.823-16.971-16.971-39.597 39.598c-9.373 9.373-24.569 9.373-33.941 0z" fill="#463c4b"/></g><g><path d="m425.706 26.412-11.314 11.314c-6.248-6.248-6.248-16.379 0-22.627z" fill="#463c4b"/></g><g><path d="m305.622 76.152h144v8h-144z" fill="#555a6e" transform="matrix(.707 -.707 .707 .707 53.927 290.495)"/></g></g></symbol></svg>