<svg xmlns="http://www.w3.org/2000/svg" style="display: none;"><symbol id="money-bag" viewBox="0 0 512 512"><title>money-bag</title><path d="M309.333,277.333H288c-5.896,0-10.667,4.771-10.667,10.667s4.771,10.667,10.667,10.667h10.667 c0,5.896,4.771,10.667,10.667,10.667c5.896,0,10.667-4.771,10.667-10.667v-1.965c12.389-4.418,21.333-16.147,21.333-30.035 c0-17.646-14.354-32-32-32c-5.885,0-10.667-4.781-10.667-10.667s4.781-10.667,10.667-10.667h21.333 c5.896,0,10.667-4.771,10.667-10.667c0-5.896-4.771-10.667-10.667-10.667H320c0-5.896-4.771-10.667-10.667-10.667 c-5.896,0-10.667,4.771-10.667,10.667v1.965c-12.389,4.418-21.333,16.147-21.333,30.035c0,17.646,14.354,32,32,32 c5.885,0,10.667,4.781,10.667,10.667C320,272.552,315.219,277.333,309.333,277.333z"/><path d="M468.246,375.398c0.393-2.017,1.087-3.98,1.087-6.065c0-36.865-27.823-84.51-35.146-96.406 c-0.342-80.199-14.589-138.668-73.19-158.664c2.671-8.352,7.497-19.483,11.982-29.742c8.604-19.688,16.729-38.281,16.729-50.625 C389.708,17.021,379.229,0,355.802,0c-15.688,0-21.521,7.406-24.698,13.76c-0.167-0.188-0.333-0.385-0.49-0.563 C326.25,8.26,318.948,0,301.583,0c-19.531,0-32.208,17.01-38.354,30.948c-7.927,0.396-19.448,2.281-26.958,9.26 c-4.781,4.448-7.313,10.302-7.313,16.927c0,11.083,7.969,23.885,16.396,37.427c4.191,6.736,8.589,13.952,11.397,20.06 c-57.803,20.303-71.931,78.543-72.272,158.315c-3.508,5.714-11.79,20.014-19.457,37.198c-17.01,1.488-31.71,4.819-40.974,7.368 c-3.212-11.169-12.328-20.174-24.413-22.587L12.76,277.542c-3.125-0.615-6.385,0.188-8.854,2.208C1.438,281.781,0,284.802,0,288 v170.667c0,5.896,4.771,10.667,10.667,10.667H77.5c13.165,0,24.384-8.382,29.212-20.147C130.587,460.569,241.055,512,288,512 c41.375,0,126.531-41.865,182.875-69.563c14.708-7.229,26.865-13.208,34.75-16.667C509.5,424.063,512,420.229,512,416 C512,395.716,494.685,380.557,468.246,375.398z M103.917,327.802L88.052,438.844C87.313,444.063,82.771,448,77.5,448H21.333 V301.01l74.115,14.823C101,316.948,104.719,322.198,103.917,327.802z M250.792,55.844c3.167-2.948,13.115-3.906,19.063-3.563 c4.958,0.604,9.5-2.792,10.948-7.521c1.885-6.073,9.729-23.427,20.781-23.427c7.75,0,9.74,2.26,13.042,6 c3.344,3.781,8.396,9.49,17.938,9.49c11.875,0,15.729-9.104,17.177-12.531c0.333-0.781,0.833-1.969,1.052-2.219 c0.01-0.01,1.135-0.74,5.01-0.74c3.438,0,12.573,0,12.573,12.563c0,7.885-8.281,26.844-14.938,42.083 c-5.275,12.055-10.21,23.53-13.138,33.204c-9.443-1.576-19.633-2.517-30.966-2.517c-11.622,0-22.074,0.965-31.711,2.62 c-3.268-8.268-8.521-16.94-14.154-25.995C257.906,74.354,250.292,62.125,250.792,55.844z M204.104,281.771 c1.104-1.719,1.698-3.729,1.698-5.771c0-109.271,27.094-148,103.531-148s103.531,38.729,103.531,148 c0,2.052,0.594,4.063,1.698,5.781c0.333,0.521,33.438,52.302,33.438,87.552c0,1.372-0.27,2.701-0.792,4.033 c-21.09,0.267-63.467,11.643-85.094,17.857c-2.902-30.612-42.124-41.448-82.656-49.681c-18.5-3.75-32.26-10.385-45.573-16.802 c-14.388-6.948-28.284-13.241-45.332-14.767C196.451,293.793,204.007,281.917,204.104,281.771z M461.458,423.292 C410.208,448.49,324.417,490.667,288,490.667c-38.802,0-140.688-45.427-176.667-62.927c-0.043-0.021-0.09-0.013-0.133-0.034 l12.557-87.898c7.759-2.43,31.513-9.141,57.576-9.141c15.75,0,27.906,5.865,43.292,13.281 c13.813,6.667,29.479,14.219,50.583,18.51c46.354,9.396,66.125,19.031,66.125,32.208c0,2.604-0.792,4.208-2.823,5.719 c-6.75,5.073-33.24,13.594-132.813-15.948c-5.667-1.698-11.583,1.552-13.26,7.198s1.552,11.583,7.198,13.26 c49.125,14.563,86.698,21.823,113.323,21.823c17.365,0,30.073-3.083,38.313-9.24c0.711-0.53,1.232-1.181,1.879-1.753 c0.665-0.072,1.32,0.008,1.986-0.195C374,409.729,427.438,394.667,448,394.667c17.396,0,35.698,5.292,41.094,15.208 C481.646,413.375,472.219,418.01,461.458,423.292z"/></symbol><symbol id="authentication" viewBox="0 0 512 512"><title>authentication</title><path d="M447.514,279h-62.371c-0.046,0-0.09,0-0.135,0c-22.5,0-42.128,13.258-50.028,33.807 c-1.051,2.735-2.336,6.178-3.677,10.193H200.357c-5.407,0-10.584,2.189-14.35,6.068l-34.356,35.388 c-7.567,7.795-7.529,20.203,0.085,27.951l35,35.612c3.76,3.826,8.9,5.981,14.264,5.981h65c11.046,0,20-8.954,20-20 c0-11.046-8.954-20-20-20h-56.614l-15.428-15.697L208.814,363h137.492c9.214,0,17.235-6.294,19.425-15.244 c1.617-6.605,3.647-12.957,6.584-20.596c1.936-5.036,6.797-8.16,12.74-8.16c0.014,0,0.027,0,0.04,0h62.371 c5.656,0.014,10.524,3.053,12.705,7.931c5.37,12.012,11.78,30.609,11.828,50.988c0.049,20.529-6.356,39.55-11.738,51.893 c-2.17,4.977-7.079,8.188-12.56,8.188c-0.011,0-0.022,0-0.033,0h-63.125c-5.533-0.013-10.716-3.573-12.896-8.859 c-2.339-5.669-4.366-12.145-6.197-19.796c-2.572-10.742-13.367-17.369-24.106-14.795c-10.742,2.571-17.366,13.364-14.795,24.106 c2.323,9.701,4.978,18.121,8.121,25.738c8.399,20.363,27.939,33.555,49.827,33.606h63.124c0.043,0,0.085,0,0.128,0 c21.35,0,40.644-12.629,49.178-32.201c6.911-15.851,15.136-40.512,15.072-67.975c-0.064-27.391-8.361-51.671-15.31-67.217 C488.129,291.457,468.844,279.05,447.514,279z"/><circle cx="431" cy="378" r="20"/><path d="M432,34H80C35.888,34,0,69.888,0,114v231c0,44.112,35.888,80,80,80h7c11.046,0,20-8.954,20-20c0-11.046-8.954-20-20-20 h-7c-22.056,0-40-17.944-40-40V118.238l173.755,108.045c13.031,8.103,27.635,12.153,42.245,12.153 c14.606,0,29.218-4.052,42.245-12.152L472,118.238V225c0,11.046,8.954,20,20,20c11.046,0,20-8.954,20-20V114 C512,69.888,476.112,34,432,34z M277.123,192.314c-13.029,8.103-29.216,8.103-42.245,0L56.699,81.518 C63.266,76.794,71.311,74,80,74h352c8.69,0,16.734,2.794,23.302,7.519L277.123,192.314z"/></symbol><symbol id="secure-shield" viewBox="0 0 512.001 512.001"><title>secure-shield</title><path d="M466.395,88.411C395.95,69.109,325.091,39.054,261.478,1.496c-3.379-1.995-7.572-1.995-10.95,0 C185.08,40.133,118.05,68.562,45.605,88.411c-4.68,1.281-7.924,5.535-7.924,10.388v110.046 c0,113.323,52.279,188.335,96.137,231.306c47.216,46.265,102.216,71.85,122.185,71.85c19.967,0,74.967-25.585,122.183-71.85 c43.857-42.97,96.133-117.982,96.133-231.306V98.798C474.319,93.946,471.075,89.692,466.395,88.411z M452.779,208.844 c0,105.843-48.761,175.838-89.669,215.92c-46.431,45.495-96.074,65.695-107.107,65.695c-11.033,0-60.679-20.2-107.111-65.695 c-40.907-40.083-89.67-110.077-89.67-215.92V106.974C128.5,87.304,193.018,59.853,256.005,23.25 c61.414,35.632,129.151,64.448,196.774,83.72V208.844z"/><path d="M160.538,105.769c-2.18-5.535-8.433-8.254-13.969-6.073c-19.24,7.581-38.988,14.559-58.695,20.741 c-4.491,1.41-7.547,5.57-7.547,10.276v41.591c0,5.948,4.823,10.77,10.77,10.77s10.77-4.822,10.77-10.77v-33.72 c17.679-5.72,35.339-12.047,52.598-18.848C160,117.557,162.719,111.304,160.538,105.769z"/><path d="M180.997,107.812c1.445,0,2.912-0.291,4.319-0.905l0.198-0.086c5.449-2.388,7.903-8.731,5.515-14.178 c-2.39-5.449-8.769-7.914-14.212-5.528l-0.174,0.075c-5.452,2.381-7.914,8.719-5.533,14.169 C172.877,105.405,176.842,107.812,180.997,107.812z"/><path d="M384.322,347.283c-4.977-3.253-11.651-1.854-14.908,3.125c-8.875,13.584-19.287,26.592-30.951,38.659 c-9.592,9.922-19.986,19.17-30.893,27.485c-4.729,3.606-5.639,10.364-2.034,15.095c2.121,2.779,5.328,4.241,8.572,4.241 c2.278,0,4.573-0.719,6.523-2.207c11.765-8.971,22.975-18.944,33.317-29.642c12.611-13.044,23.881-27.124,33.499-41.849 C390.702,357.21,389.301,350.536,384.322,347.283z"/><path d="M282.558,433.443l-0.618,0.364c-5.147,2.981-6.906,9.569-3.926,14.716c1.997,3.45,5.612,5.376,9.331,5.376 c1.83,0,3.688-0.467,5.385-1.452l0.713-0.419c5.133-3.006,6.857-9.603,3.851-14.736 C294.286,432.161,287.688,430.44,282.558,433.443z"/><path d="M182.589,234.019c-6.613-6.614-15.408-10.254-24.762-10.254s-18.15,3.641-24.766,10.254 c-13.653,13.656-13.653,35.876,0,49.531l63.596,63.594c6.614,6.612,15.409,10.253,24.764,10.253s18.15-3.641,24.765-10.255 L378.947,214.38c13.652-13.659,13.652-35.876-0.002-49.527c-6.614-6.614-15.409-10.254-24.765-10.254 c-9.355,0-18.15,3.641-24.765,10.254L221.42,272.848L182.589,234.019z M344.647,180.085c2.545-2.545,5.932-3.946,9.534-3.946 c3.604,0,6.988,1.401,9.535,3.946c5.255,5.255,5.255,13.809-0.002,19.066l-132.759,132.76c-2.545,2.545-5.932,3.946-9.534,3.946 s-6.989-1.401-9.535-3.946l-63.594-63.592c-5.257-5.257-5.257-13.811-0.002-19.066c2.546-2.545,5.933-3.948,9.536-3.948 s6.988,1.401,9.533,3.946l46.445,46.446c2.021,2.019,4.759,3.154,7.616,3.154s5.595-1.134,7.614-3.154L344.647,180.085z"/></symbol><symbol id="alert" viewBox="0 0 74 74"><title>alert</title><g id="Numbers"><text transform="translate(26.989 -1010.544)" font-size="18" fill="red" font-family="ArialMT, Arial">10<tspan x="0" y="124">20</tspan><tspan x="0" y="248">30</tspan><tspan x="0" y="372">40</tspan><tspan x="0" y="496">50</tspan><tspan x="0" y="620">60</tspan><tspan x="0" y="744">70</tspan><tspan x="0" y="868">80</tspan><tspan x="0" y="992">90</tspan><tspan x="-5.005" y="1116">100</tspan><tspan x="-4.337" y="1240" letter-spacing="-0.074em">1</tspan><tspan x="4.337" y="1240">10</tspan><tspan x="-5.005" y="1364">120</tspan><tspan x="-5.005" y="1488">130</tspan><tspan x="-5.005" y="1612">140</tspan><tspan x="-5.005" y="1736">150</tspan><tspan x="-5.005" y="1860">160</tspan><tspan x="-5.005" y="1984">170</tspan><tspan x="-5.005" y="2108">180</tspan><tspan x="-5.005" y="2232">190</tspan><tspan x="-5.005" y="2356">200</tspan><tspan x="-5.005" y="2480">210</tspan><tspan x="-5.005" y="2604">220</tspan><tspan x="-5.005" y="2728">230</tspan><tspan x="-5.005" y="2852">240</tspan><tspan x="-5.005" y="2976">250</tspan><tspan x="-5.005" y="3100">260</tspan><tspan x="-5.005" y="3224">270</tspan><tspan x="-5.005" y="3348">280</tspan><tspan x="-5.005" y="3472">290</tspan><tspan x="-5.005" y="3596">300</tspan></text></g><g id="Icons"><path d="M66.592,67H7.408a5.333,5.333,0,0,1-4.694-2.748,5.4,5.4,0,0,1,.076-5.507L32.381,9.618a5.384,5.384,0,0,1,9.238,0L71.21,58.745a5.4,5.4,0,0,1,.076,5.507A5.333,5.333,0,0,1,66.592,67ZM37,9a3.369,3.369,0,0,0-2.906,1.65L4.5,59.777a3.423,3.423,0,0,0-.048,3.491A3.357,3.357,0,0,0,7.408,65H66.592a3.357,3.357,0,0,0,2.953-1.732,3.423,3.423,0,0,0-.048-3.491L39.906,10.65A3.369,3.369,0,0,0,37,9Z"/><path d="M37,50a3,3,0,0,1-3-3V27a3,3,0,0,1,6,0V47A3,3,0,0,1,37,50Zm0-24a1,1,0,0,0-1,1V47a1,1,0,0,0,2,0V27A1,1,0,0,0,37,26Z"/><path d="M37,60a3,3,0,0,1-3-3V56a3,3,0,0,1,6,0v1A3,3,0,0,1,37,60Zm0-5a1,1,0,0,0-1,1v1a1,1,0,0,0,2,0V56A1,1,0,0,0,37,55Z"/></g></symbol><symbol id="monitor" viewBox="0 0 480 480"><title>monitor</title><path d="M456,28H24C10.745,28,0,38.745,0,52v288c0,13.255,10.745,24,24,24h172.584L170.4,436H144c-4.418,0-8,3.582-8,8 s3.582,8,8,8h192c4.418,0,8-3.582,8-8s-3.582-8-8-8h-26.4l-26.184-72H456c13.255,0,24-10.745,24-24V52 C480,38.745,469.255,28,456,28z M292.576,436H187.424l26.176-72h52.8L292.576,436z M464,60h-24c-4.418,0-8,3.582-8,8s3.582,8,8,8 h24v224H280c-4.418,0-8,3.582-8,8s3.582,8,8,8h184v24c0,4.418-3.582,8-8,8H24c-4.418,0-8-3.582-8-8v-24h184c4.418,0,8-3.582,8-8 s-3.582-8-8-8H16V76h392c4.418,0,8-3.582,8-8s-3.582-8-8-8H16v-8c0-4.418,3.582-8,8-8h432c4.418,0,8,3.582,8,8V60z"/><path d="M248,300h-16c-4.418,0-8,3.582-8,8s3.582,8,8,8h16c4.418,0,8-3.582,8-8S252.418,300,248,300z"/></symbol><symbol id="target" viewBox="0 0 512 512"><title>target</title><g> <g> <path d="M480.488,241C473.07,128.863,383.137,38.93,271,31.512V0h-30v31.512C128.863,38.93,38.93,128.863,31.512,241H0v30h31.512 C38.93,383.137,128.863,473.07,241,480.488V512h30v-31.512C383.137,473.07,473.07,383.137,480.488,271H512v-30H480.488z M241,61.571v60.267C178.521,128.777,128.777,178.521,121.838,241H61.571C68.877,145.409,145.409,68.877,241,61.571z M241,450.429 C145.409,443.123,68.877,366.591,61.571,271h60.267c6.939,62.479,56.683,112.223,119.162,119.162V450.429z M241,331v28.924 c-45.916-6.597-82.327-43.008-88.924-88.924H181v-30h-28.924c6.597-45.916,43.008-82.327,88.924-88.924V181h30v-28.924 c45.916,6.597,82.327,43.008,88.924,88.924H331v30h28.924c-6.597,45.916-43.008,82.327-88.924,88.924V331H241z M271,450.429 v-60.267c62.479-6.939,112.223-56.684,119.162-119.162h60.267C443.123,366.591,366.591,443.123,271,450.429z M390.162,241 C383.223,178.521,333.479,128.777,271,121.838V61.571C366.591,68.877,443.123,145.409,450.429,241H390.162z"/> </g> </g><g> <g> <path d="M256,211c-24.813,0-45,20.187-45,45s20.187,45,45,45s45-20.187,45-45S280.813,211,256,211z"/> </g> </g></symbol></svg>